<?xml version="1.0" encoding="UTF-8" standalone="no"?>
<!-- Created with Inkscape (http://www.inkscape.org/) -->

<svg
   width="1024"
   height="1024"
   viewBox="0 0 1024 1024"
   version="1.1"
   id="SVGRoot"
   sodipodi:docname="atom.svg"
   xml:space="preserve"
   inkscape:export-filename="atom.svg"
   inkscape:export-xdpi="96"
   inkscape:export-ydpi="96"
   inkscape:version="1.2.2 (732a01da63, 2022-12-09)"
   xmlns:inkscape="http://www.inkscape.org/namespaces/inkscape"
   xmlns:sodipodi="http://sodipodi.sourceforge.net/DTD/sodipodi-0.dtd"
   xmlns:xlink="http://www.w3.org/1999/xlink"
   xmlns="http://www.w3.org/2000/svg"
   xmlns:svg="http://www.w3.org/2000/svg"><sodipodi:namedview
     id="namedview29"
     pagecolor="#ffffff"
     bordercolor="#000000"
     borderopacity="0.25"
     inkscape:showpageshadow="2"
     inkscape:pageopacity="0.0"
     inkscape:pagecheckerboard="0"
     inkscape:deskcolor="#d1d1d1"
     inkscape:document-units="px"
     showgrid="true"
     inkscape:zoom="0.25"
     inkscape:cx="-790"
     inkscape:cy="564"
     inkscape:window-width="1920"
     inkscape:window-height="1057"
     inkscape:window-x="-8"
     inkscape:window-y="-8"
     inkscape:window-maximized="1"
     inkscape:current-layer="layer1"><inkscape:grid
       type="xygrid"
       id="grid35" /></sodipodi:namedview><defs
     id="defs24"><linearGradient
       inkscape:collect="always"
       id="linearGradient5839"><stop
         style="stop-color:#35e2c2;stop-opacity:1;"
         offset="0.06752413"
         id="stop5835" /><stop
         style="stop-color:#56a7ff;stop-opacity:1;"
         offset="0.55787784"
         id="stop5843" /><stop
         style="stop-color:#2651ff;stop-opacity:1;"
         offset="1"
         id="stop5837" /></linearGradient><linearGradient
       inkscape:collect="always"
       xlink:href="#linearGradient5839"
       id="linearGradient5841"
       x1="243.13374"
       y1="512.46747"
       x2="882.33673"
       y2="512.46747"
       gradientUnits="userSpaceOnUse"
       gradientTransform="matrix(1.4008286,0,0,1.4008281,-276.29576,-205.87878)" /></defs><g
     inkscape:label="Layer 1"
     inkscape:groupmode="layer"
     id="layer1"><path
       id="path2918"
       style="fill:url(#linearGradient5841);fill-opacity:1;fill-rule:evenodd;stroke:#000000;stroke-width:1.40083;stroke-opacity:0"
       d="m 414.00778,231.16389 c 122.8251,148.8192 177.0833,277.05346 233.6499,418.88859 -148.6235,45.87544 -312.9184,44.96386 -463.7137,0.44826 50.8372,-173.22015 138.5833,-307.56185 230.0638,-419.33685 z M 122.64588,443.18563 C 93.899378,369.79925 -23.111624,46.152893 191.67628,1.2122141 359.92828,-10.930106 491.85878,196.50509 540.41408,259.40359 c 116.456,171.77124 155.4881,282.75312 184.6786,372.04657 113.5319,-30.41617 156.086,-89.18646 152.4046,-126.40619 -8.3134,-43.35567 -36.2938,-86.51066 -207.9875,-128.19917 l -56.4794,-98.0896 c 133.9812,22.52692 334.4639,73.43865 345.6,219.17282 10.3769,155.16991 -196.91,211.90616 -246.3128,224.34857 -140.0727,30.05666 -310.6958,56.69297 -552.3451,8.88831 -14.3465,67.928 -33.8445,193.30832 42.91,206.04703 62.085,9.15219 133.9279,-59.70213 197.5087,-128.68796 l 106.5211,-2.34999 C 419.73668,930.66829 293.45028,1024.3055 215.62608,1023.2914 32.428776,1014.5591 63.463976,796.61403 73.628076,747.5364 116.85168,523.99479 231.04898,324.28147 357.52838,169.30556 241.52138,64.569453 200.30018,80.112214 179.88258,92.225984 c -56.8377,44.013246 -27.2033,182.482306 -4.3433,256.827376 z"
       sodipodi:nodetypes="ccccccccccccccccccccccc" /></g></svg>
